<svg 
  viewBox="0 0 24 24" 
  xmlns="http://www.w3.org/2000/svg"
  fill="#F8FAFC"
>
  <rect width="24" height="24" rx="4" fill="#201b43" />
  <g transform="scale(0.75) translate(4, 4)">
    <path 
      d="M16.5 3.5C16.5 3.5 13 2 12 2C11 2 7.5 3.5 7.5 3.5C5 5 4 8 4 12C4 18 12 22 12 22C12 22 20 18 20 12C20 8 19 5 16.5 3.5Z" 
    />
    <path 
      d="M12 2C11 2 7.5 3.5 7.5 3.5C5 5 4 8 4 12C4 13.5 4.5 15.5 5.5 17C9 17.5 11 15 12 13C13 15 15 17.5 18.5 17C19.5 15.5 20 13.5 20 12C20 8 19 5 16.5 3.5C16.5 3.5 13 2 12 2Z" 
      fill="#F8FAFC"
      opacity="0.6"
    />
    <path 
      d="M12 11.5C12.5523 11.5 13 11.0523 13 10.5C13 9.94772 12.5523 9.5 12 9.5C11.4477 9.5 11 9.94772 11 10.5C11 11.0523 11.4477 11.5 12 11.5Z" 
      fill="#201b43"
      opacity="0.8"
    />
    <path 
      d="M12 20V11" 
      stroke="#201b43" 
      stroke-width="0.5" 
      stroke-linecap="round"
      opacity="0.6"
    />
  </g>
</svg>
